<svg xmlns="http://www.w3.org/2000/svg" xmlns:xlink="http://www.w3.org/1999/xlink" width="500" zoomAndPan="magnify" viewBox="0 0 375 74.999997" height="100" preserveAspectRatio="xMidYMid meet" version="1.0"><defs><g/><clipPath id="c03ef5ad79"><path d="M 3.40625 21 L 30 21 L 30 53 L 3.40625 53 Z M 3.40625 21 " clip-rule="nonzero"/></clipPath><clipPath id="4bf520e126"><path d="M 3.40625 20.699219 L 30 20.699219 L 30 53 L 3.40625 53 Z M 3.40625 20.699219 " clip-rule="nonzero"/></clipPath><clipPath id="1149e036f3"><path d="M 11 26 L 37.40625 26 L 37.40625 58.304688 L 11 58.304688 Z M 11 26 " clip-rule="nonzero"/></clipPath></defs><g clip-path="url(#c03ef5ad79)"><path fill="#ffffff" d="M 4.019531 52.082031 C 3.851562 52.082031 3.714844 51.949219 3.714844 51.777344 L 3.714844 21.316406 C 3.714844 21.148438 3.851562 21.011719 4.019531 21.011719 L 23.488281 21.011719 C 23.558594 21.011719 23.628906 21.039062 23.683594 21.085938 L 29.132812 25.761719 C 29.199219 25.820312 29.238281 25.902344 29.238281 25.992188 L 29.238281 51.777344 C 29.238281 51.949219 29.101562 52.082031 28.933594 52.082031 L 4.019531 52.082031 " fill-opacity="1" fill-rule="nonzero"/></g><g clip-path="url(#4bf520e126)"><path fill="#00356a" d="M 23.488281 20.707031 L 4.019531 20.707031 C 3.683594 20.707031 3.410156 20.980469 3.410156 21.316406 L 3.410156 51.777344 C 3.410156 52.117188 3.683594 52.390625 4.019531 52.390625 L 28.933594 52.390625 C 29.269531 52.390625 29.542969 52.117188 29.542969 51.777344 L 29.542969 25.992188 C 29.542969 25.816406 29.464844 25.644531 29.328125 25.527344 L 23.882812 20.851562 C 23.769531 20.757812 23.632812 20.707031 23.488281 20.707031 Z M 23.488281 21.316406 L 28.933594 25.992188 L 28.933594 51.777344 L 4.019531 51.777344 L 4.019531 21.316406 L 23.488281 21.316406 " fill-opacity="1" fill-rule="nonzero"/></g><path fill="#039be5" d="M 8.292969 24.316406 L 8.292969 51.777344 L 30.753906 51.777344 L 30.753906 28.53125 L 28.933594 25.992188 L 25.84375 24.316406 L 8.292969 24.316406 " fill-opacity="1" fill-rule="nonzero"/><path fill="#00356a" d="M 23.488281 21.316406 L 23.488281 25.992188 L 28.933594 25.992188 Z M 23.488281 21.316406 " fill-opacity="1" fill-rule="nonzero"/><path fill="#00356a" d="M 20.523438 28.910156 C 20.523438 29.246094 20.253906 29.515625 19.921875 29.515625 L 12.265625 29.515625 C 11.933594 29.515625 11.664062 29.246094 11.664062 28.910156 C 11.664062 28.578125 11.933594 28.304688 12.265625 28.304688 L 19.921875 28.304688 C 20.253906 28.304688 20.523438 28.578125 20.523438 28.910156 " fill-opacity="1" fill-rule="nonzero"/><path fill="#00356a" d="M 25.421875 31.964844 C 25.421875 32.300781 25.148438 32.570312 24.816406 32.570312 L 8.136719 32.570312 C 7.804688 32.570312 7.535156 32.300781 7.535156 31.964844 C 7.535156 31.632812 7.804688 31.359375 8.136719 31.359375 L 24.816406 31.359375 C 25.148438 31.359375 25.421875 31.632812 25.421875 31.964844 " fill-opacity="1" fill-rule="nonzero"/><path fill="#00356a" d="M 25.421875 35.019531 C 25.421875 35.351562 25.148438 35.625 24.816406 35.625 L 8.136719 35.625 C 7.804688 35.625 7.535156 35.351562 7.535156 35.019531 C 7.535156 34.6875 7.804688 34.414062 8.136719 34.414062 L 24.816406 34.414062 C 25.148438 34.414062 25.421875 34.6875 25.421875 35.019531 " fill-opacity="1" fill-rule="nonzero"/><path fill="#00356a" d="M 25.421875 38.074219 C 25.421875 38.410156 25.148438 38.679688 24.816406 38.679688 L 8.136719 38.679688 C 7.804688 38.679688 7.535156 38.410156 7.535156 38.074219 C 7.535156 37.742188 7.804688 37.472656 8.136719 37.472656 L 24.816406 37.472656 C 25.148438 37.472656 25.421875 37.742188 25.421875 38.074219 " fill-opacity="1" fill-rule="nonzero"/><path fill="#00356a" d="M 25.421875 41.128906 C 25.421875 41.464844 25.148438 41.734375 24.816406 41.734375 L 8.136719 41.734375 C 7.804688 41.734375 7.535156 41.464844 7.535156 41.128906 C 7.535156 40.796875 7.804688 40.523438 8.136719 40.523438 L 24.816406 40.523438 C 25.148438 40.523438 25.421875 40.796875 25.421875 41.128906 " fill-opacity="1" fill-rule="nonzero"/><path fill="#00356a" d="M 25.421875 44.183594 C 25.421875 44.519531 25.148438 44.789062 24.816406 44.789062 L 8.136719 44.789062 C 7.804688 44.789062 7.535156 44.519531 7.535156 44.183594 C 7.535156 43.851562 7.804688 43.578125 8.136719 43.578125 L 24.816406 43.578125 C 25.148438 43.578125 25.421875 43.851562 25.421875 44.183594 " fill-opacity="1" fill-rule="nonzero"/><g clip-path="url(#1149e036f3)"><path fill="#ffffff" d="M 11.878906 58.007812 C 11.710938 58.007812 11.574219 57.871094 11.574219 57.703125 L 11.574219 27.242188 C 11.574219 27.074219 11.710938 26.933594 11.878906 26.933594 L 31.347656 26.933594 C 31.417969 26.933594 31.488281 26.960938 31.542969 27.007812 L 36.992188 31.683594 C 37.058594 31.742188 37.097656 31.828125 37.097656 31.917969 L 37.097656 57.703125 C 37.097656 57.871094 36.960938 58.007812 36.792969 58.007812 L 11.878906 58.007812 " fill-opacity="1" fill-rule="nonzero"/><path fill="#00356a" d="M 31.347656 26.628906 L 11.878906 26.628906 C 11.542969 26.628906 11.269531 26.902344 11.269531 27.242188 L 11.269531 57.703125 C 11.269531 58.039062 11.542969 58.3125 11.878906 58.3125 L 36.792969 58.3125 C 37.128906 58.3125 37.402344 58.039062 37.402344 57.703125 L 37.402344 31.917969 C 37.402344 31.738281 37.324219 31.570312 37.1875 31.453125 L 31.742188 26.777344 C 31.628906 26.679688 31.492188 26.628906 31.347656 26.628906 Z M 31.347656 27.242188 L 36.792969 31.917969 L 36.792969 57.703125 L 11.878906 57.703125 L 11.878906 27.242188 L 31.347656 27.242188 " fill-opacity="1" fill-rule="nonzero"/></g><path fill="#039be5" d="M 32.363281 28.113281 C 34.179688 30.941406 35.242188 34.285156 35.242188 37.84375 C 35.242188 47.75 27.003906 56.015625 17.128906 56.015625 C 15.308594 56.015625 13.546875 55.738281 11.878906 55.214844 L 11.878906 57.703125 L 36.792969 57.703125 L 36.792969 31.917969 L 32.363281 28.113281 " fill-opacity="1" fill-rule="nonzero"/><path fill="#00356a" d="M 31.347656 27.242188 L 31.347656 31.917969 L 36.792969 31.917969 Z M 31.347656 27.242188 " fill-opacity="1" fill-rule="nonzero"/><path fill="#00356a" d="M 28.382812 34.835938 C 28.382812 35.167969 28.117188 35.4375 27.78125 35.4375 L 20.125 35.4375 C 19.792969 35.4375 19.523438 35.167969 19.523438 34.835938 C 19.523438 34.5 19.792969 34.230469 20.125 34.230469 L 27.78125 34.230469 C 28.117188 34.230469 28.382812 34.5 28.382812 34.835938 " fill-opacity="1" fill-rule="nonzero"/><path fill="#00356a" d="M 33.28125 37.890625 C 33.28125 38.222656 33.011719 38.492188 32.675781 38.492188 L 15.996094 38.492188 C 15.664062 38.492188 15.394531 38.222656 15.394531 37.890625 C 15.394531 37.554688 15.664062 37.285156 15.996094 37.285156 L 32.675781 37.285156 C 33.011719 37.285156 33.28125 37.554688 33.28125 37.890625 " fill-opacity="1" fill-rule="nonzero"/><path fill="#00356a" d="M 33.28125 40.945312 C 33.28125 41.277344 33.011719 41.546875 32.675781 41.546875 L 15.996094 41.546875 C 15.664062 41.546875 15.394531 41.277344 15.394531 40.945312 C 15.394531 40.609375 15.664062 40.339844 15.996094 40.339844 L 32.675781 40.339844 C 33.011719 40.339844 33.28125 40.609375 33.28125 40.945312 " fill-opacity="1" fill-rule="nonzero"/><path fill="#00356a" d="M 33.28125 44 C 33.28125 44.332031 33.011719 44.601562 32.675781 44.601562 L 15.996094 44.601562 C 15.664062 44.601562 15.394531 44.332031 15.394531 44 C 15.394531 43.664062 15.664062 43.394531 15.996094 43.394531 L 32.675781 43.394531 C 33.011719 43.394531 33.28125 43.664062 33.28125 44 " fill-opacity="1" fill-rule="nonzero"/><path fill="#00356a" d="M 33.28125 47.054688 C 33.28125 47.386719 33.011719 47.65625 32.675781 47.65625 L 15.996094 47.65625 C 15.664062 47.65625 15.394531 47.386719 15.394531 47.054688 C 15.394531 46.71875 15.664062 46.449219 15.996094 46.449219 L 32.675781 46.449219 C 33.011719 46.449219 33.28125 46.71875 33.28125 47.054688 " fill-opacity="1" fill-rule="nonzero"/><path fill="#00356a" d="M 33.28125 50.109375 C 33.28125 50.441406 33.011719 50.710938 32.675781 50.710938 L 15.996094 50.710938 C 15.664062 50.710938 15.394531 50.441406 15.394531 50.109375 C 15.394531 49.773438 15.664062 49.503906 15.996094 49.503906 L 32.675781 49.503906 C 33.011719 49.503906 33.28125 49.773438 33.28125 50.109375 " fill-opacity="1" fill-rule="nonzero"/><path stroke-linecap="butt" transform="matrix(0.000000000000000024, 0.399237, -0.400033, 0.000000000000000024, 45.59254, 20.702729)" fill="none" stroke-linejoin="miter" d="M 0.000991318 4.000547 L 94.204113 4.000547 " stroke="#00356a" stroke-width="8" stroke-opacity="1" stroke-miterlimit="4"/><g fill="#00356a" fill-opacity="0.4"><g transform="translate(53.510192, 58.401733)"><g><path d="M 23.5625 -5.6875 L 10.078125 -5.6875 L 7.84375 0 L -0.21875 0 L 13.078125 -30.828125 L 21.140625 -30.828125 L 34.125 0 L 25.765625 0 Z M 21.265625 -11.625 L 16.859375 -23.03125 L 12.375 -11.625 Z M 21.265625 -11.625 "/></g></g></g><g fill="#00356a" fill-opacity="0.4"><g transform="translate(90.541661, 58.401733)"><g><path d="M 3.078125 -30.828125 L 17.65625 -30.828125 C 21.125 -30.828125 23.875 -30.128906 25.90625 -28.734375 C 27.945312 -27.335938 28.96875 -25.460938 28.96875 -23.109375 C 28.96875 -21.492188 28.5 -20.078125 27.5625 -18.859375 C 26.625 -17.648438 25.332031 -16.804688 23.6875 -16.328125 C 25.625 -15.953125 27.164062 -15.054688 28.3125 -13.640625 C 29.457031 -12.234375 30.03125 -10.535156 30.03125 -8.546875 C 30.03125 -5.929688 28.960938 -3.851562 26.828125 -2.3125 C 24.703125 -0.769531 21.820312 0 18.1875 0 L 3.078125 0 Z M 10.875 -24.828125 L 10.875 -18.5 L 17.21875 -18.5 C 18.363281 -18.5 19.269531 -18.78125 19.9375 -19.34375 C 20.613281 -19.914062 20.953125 -20.703125 20.953125 -21.703125 C 20.953125 -22.671875 20.613281 -23.429688 19.9375 -23.984375 C 19.269531 -24.546875 18.363281 -24.828125 17.21875 -24.828125 Z M 10.875 -12.859375 L 10.875 -6.03125 L 17.21875 -6.03125 C 18.6875 -6.03125 19.835938 -6.335938 20.671875 -6.953125 C 21.503906 -7.566406 21.921875 -8.421875 21.921875 -9.515625 C 21.921875 -10.535156 21.503906 -11.347656 20.671875 -11.953125 C 19.835938 -12.554688 18.6875 -12.859375 17.21875 -12.859375 Z M 10.875 -12.859375 "/></g></g></g><g fill="#00356a" fill-opacity="0.4"><g transform="translate(125.151411, 58.401733)"><g><path d="M 17.703125 -31.09375 C 22.484375 -31.09375 26.457031 -29.597656 29.625 -26.609375 C 32.800781 -23.628906 34.390625 -19.910156 34.390625 -15.453125 C 34.390625 -10.960938 32.796875 -7.203125 29.609375 -4.171875 C 26.421875 -1.148438 22.445312 0.359375 17.6875 0.359375 C 12.9375 0.359375 8.976562 -1.144531 5.8125 -4.15625 C 2.644531 -7.164062 1.0625 -10.929688 1.0625 -15.453125 C 1.0625 -19.941406 2.644531 -23.671875 5.8125 -26.640625 C 8.976562 -29.609375 12.941406 -31.09375 17.703125 -31.09375 Z M 17.78125 -24.53125 C 15.375 -24.53125 13.320312 -23.65625 11.625 -21.90625 C 9.925781 -20.15625 9.078125 -17.988281 9.078125 -15.40625 C 9.078125 -12.820312 9.929688 -10.640625 11.640625 -8.859375 C 13.359375 -7.085938 15.40625 -6.203125 17.78125 -6.203125 C 20.164062 -6.203125 22.1875 -7.085938 23.84375 -8.859375 C 25.5 -10.640625 26.328125 -12.820312 26.328125 -15.40625 C 26.328125 -17.988281 25.5 -20.15625 23.84375 -21.90625 C 22.1875 -23.65625 20.164062 -24.53125 17.78125 -24.53125 Z M 17.78125 -24.53125 "/></g></g></g><g fill="#00356a" fill-opacity="0.4"><g transform="translate(163.724002, 58.401733)"><g><path d="M 23.5625 -15.671875 L 30.34375 -15.671875 L 30.34375 -3.65625 C 28.664062 -2.476562 26.644531 -1.515625 24.28125 -0.765625 C 21.914062 -0.015625 19.664062 0.359375 17.53125 0.359375 C 12.832031 0.359375 8.910156 -1.144531 5.765625 -4.15625 C 2.628906 -7.164062 1.0625 -10.914062 1.0625 -15.40625 C 1.0625 -19.875 2.675781 -23.601562 5.90625 -26.59375 C 9.132812 -29.59375 13.179688 -31.09375 18.046875 -31.09375 C 20.335938 -31.09375 22.613281 -30.679688 24.875 -29.859375 C 27.132812 -29.035156 29.054688 -27.914062 30.640625 -26.5 L 26.25 -21.171875 C 25.125 -22.203125 23.828125 -23.019531 22.359375 -23.625 C 20.898438 -24.226562 19.453125 -24.53125 18.015625 -24.53125 C 15.484375 -24.53125 13.359375 -23.65625 11.640625 -21.90625 C 9.929688 -20.15625 9.078125 -17.988281 9.078125 -15.40625 C 9.078125 -12.789062 9.941406 -10.601562 11.671875 -8.84375 C 13.398438 -7.082031 15.539062 -6.203125 18.09375 -6.203125 C 19.738281 -6.203125 21.5625 -6.703125 23.5625 -7.703125 Z M 23.5625 -15.671875 "/></g></g></g><g fill="#00356a" fill-opacity="0.4"><g transform="translate(199.566624, 58.401733)"><g><path d="M 23.5625 -5.6875 L 10.078125 -5.6875 L 7.84375 0 L -0.21875 0 L 13.078125 -30.828125 L 21.140625 -30.828125 L 34.125 0 L 25.765625 0 Z M 21.265625 -11.625 L 16.859375 -23.03125 L 12.375 -11.625 Z M 21.265625 -11.625 "/></g></g></g><g fill="#00356a" fill-opacity="0.4"><g transform="translate(236.5981, 58.401733)"><g><path d="M 3.078125 -30.828125 L 16.328125 -30.828125 C 21.171875 -30.828125 25.113281 -29.398438 28.15625 -26.546875 C 31.195312 -23.703125 32.71875 -19.988281 32.71875 -15.40625 C 32.71875 -10.863281 31.175781 -7.160156 28.09375 -4.296875 C 25.007812 -1.429688 20.988281 0 16.03125 0 L 3.078125 0 Z M 10.921875 -24.5625 L 10.921875 -6.25 L 16.515625 -6.25 C 18.921875 -6.25 20.894531 -7.09375 22.4375 -8.78125 C 23.976562 -10.46875 24.75 -12.660156 24.75 -15.359375 C 24.75 -18.066406 23.941406 -20.273438 22.328125 -21.984375 C 20.710938 -23.703125 18.65625 -24.5625 16.15625 -24.5625 Z M 10.921875 -24.5625 "/></g></g></g><g fill="#00356a" fill-opacity="0.4"><g transform="translate(273.497486, 58.401733)"><g><path d="M 17.703125 -31.09375 C 22.484375 -31.09375 26.457031 -29.597656 29.625 -26.609375 C 32.800781 -23.628906 34.390625 -19.910156 34.390625 -15.453125 C 34.390625 -10.960938 32.796875 -7.203125 29.609375 -4.171875 C 26.421875 -1.148438 22.445312 0.359375 17.6875 0.359375 C 12.9375 0.359375 8.976562 -1.144531 5.8125 -4.15625 C 2.644531 -7.164062 1.0625 -10.929688 1.0625 -15.453125 C 1.0625 -19.941406 2.644531 -23.671875 5.8125 -26.640625 C 8.976562 -29.609375 12.941406 -31.09375 17.703125 -31.09375 Z M 17.78125 -24.53125 C 15.375 -24.53125 13.320312 -23.65625 11.625 -21.90625 C 9.925781 -20.15625 9.078125 -17.988281 9.078125 -15.40625 C 9.078125 -12.820312 9.929688 -10.640625 11.640625 -8.859375 C 13.359375 -7.085938 15.40625 -6.203125 17.78125 -6.203125 C 20.164062 -6.203125 22.1875 -7.085938 23.84375 -8.859375 C 25.5 -10.640625 26.328125 -12.820312 26.328125 -15.40625 C 26.328125 -17.988281 25.5 -20.15625 23.84375 -21.90625 C 22.1875 -23.65625 20.164062 -24.53125 17.78125 -24.53125 Z M 17.78125 -24.53125 "/></g></g></g><g fill="#00356a" fill-opacity="0.4"><g transform="translate(312.070073, 58.401733)"><g><path d="M 17.53125 -31.09375 C 19.8125 -31.09375 22.0625 -30.617188 24.28125 -29.671875 C 26.5 -28.734375 28.382812 -27.472656 29.9375 -25.890625 L 25.40625 -20.515625 C 24.40625 -21.753906 23.207031 -22.734375 21.8125 -23.453125 C 20.414062 -24.171875 19.03125 -24.53125 17.65625 -24.53125 C 15.21875 -24.53125 13.175781 -23.671875 11.53125 -21.953125 C 9.894531 -20.234375 9.078125 -18.113281 9.078125 -15.59375 C 9.078125 -13.007812 9.894531 -10.847656 11.53125 -9.109375 C 13.175781 -7.378906 15.21875 -6.515625 17.65625 -6.515625 C 18.945312 -6.515625 20.289062 -6.835938 21.6875 -7.484375 C 23.082031 -8.128906 24.320312 -9.007812 25.40625 -10.125 L 29.984375 -5.28125 C 28.304688 -3.582031 26.332031 -2.21875 24.0625 -1.1875 C 21.789062 -0.15625 19.523438 0.359375 17.265625 0.359375 C 12.617188 0.359375 8.753906 -1.148438 5.671875 -4.171875 C 2.597656 -7.203125 1.0625 -10.976562 1.0625 -15.5 C 1.0625 -19.925781 2.628906 -23.628906 5.765625 -26.609375 C 8.910156 -29.597656 12.832031 -31.09375 17.53125 -31.09375 Z M 17.53125 -31.09375 "/></g></g></g><g fill="#00356a" fill-opacity="0.4"><g transform="translate(345.667083, 58.401733)"><g><path d="M 14.921875 -31.171875 C 19.535156 -31.171875 23.585938 -30.023438 27.078125 -27.734375 L 24.125 -21.625 C 22.507812 -22.5625 20.773438 -23.328125 18.921875 -23.921875 C 17.078125 -24.523438 15.523438 -24.828125 14.265625 -24.828125 C 12.003906 -24.828125 10.875 -24.082031 10.875 -22.59375 C 10.875 -21.625 11.429688 -20.84375 12.546875 -20.25 C 13.660156 -19.664062 15.015625 -19.160156 16.609375 -18.734375 C 18.210938 -18.304688 19.816406 -17.789062 21.421875 -17.1875 C 23.023438 -16.59375 24.382812 -15.617188 25.5 -14.265625 C 26.613281 -12.910156 27.171875 -11.207031 27.171875 -9.15625 C 27.171875 -6.195312 26.007812 -3.882812 23.6875 -2.21875 C 21.363281 -0.5625 18.414062 0.265625 14.84375 0.265625 C 12.28125 0.265625 9.75 -0.171875 7.25 -1.046875 C 4.757812 -1.929688 2.59375 -3.140625 0.75 -4.671875 L 3.78125 -10.703125 C 5.34375 -9.347656 7.175781 -8.238281 9.28125 -7.375 C 11.394531 -6.507812 13.273438 -6.078125 14.921875 -6.078125 C 16.179688 -6.078125 17.164062 -6.300781 17.875 -6.75 C 18.582031 -7.207031 18.9375 -7.878906 18.9375 -8.765625 C 18.9375 -9.617188 18.53125 -10.328125 17.71875 -10.890625 C 16.914062 -11.460938 15.910156 -11.890625 14.703125 -12.171875 C 13.503906 -12.453125 12.195312 -12.828125 10.78125 -13.296875 C 9.375 -13.765625 8.066406 -14.273438 6.859375 -14.828125 C 5.660156 -15.390625 4.65625 -16.28125 3.84375 -17.5 C 3.039062 -18.71875 2.640625 -20.179688 2.640625 -21.890625 C 2.640625 -24.703125 3.757812 -26.953125 6 -28.640625 C 8.25 -30.328125 11.222656 -31.171875 14.921875 -31.171875 Z M 14.921875 -31.171875 "/></g></g></g><g fill="#00356a" fill-opacity="1"><g transform="translate(50.395755, 55.287296)"><g><path d="M 23.5625 -5.6875 L 10.078125 -5.6875 L 7.84375 0 L -0.21875 0 L 13.078125 -30.828125 L 21.140625 -30.828125 L 34.125 0 L 25.765625 0 Z M 21.265625 -11.625 L 16.859375 -23.03125 L 12.375 -11.625 Z M 21.265625 -11.625 "/></g></g></g><g fill="#00356a" fill-opacity="1"><g transform="translate(87.427224, 55.287296)"><g><path d="M 3.078125 -30.828125 L 17.65625 -30.828125 C 21.125 -30.828125 23.875 -30.128906 25.90625 -28.734375 C 27.945312 -27.335938 28.96875 -25.460938 28.96875 -23.109375 C 28.96875 -21.492188 28.5 -20.078125 27.5625 -18.859375 C 26.625 -17.648438 25.332031 -16.804688 23.6875 -16.328125 C 25.625 -15.953125 27.164062 -15.054688 28.3125 -13.640625 C 29.457031 -12.234375 30.03125 -10.535156 30.03125 -8.546875 C 30.03125 -5.929688 28.960938 -3.851562 26.828125 -2.3125 C 24.703125 -0.769531 21.820312 0 18.1875 0 L 3.078125 0 Z M 10.875 -24.828125 L 10.875 -18.5 L 17.21875 -18.5 C 18.363281 -18.5 19.269531 -18.78125 19.9375 -19.34375 C 20.613281 -19.914062 20.953125 -20.703125 20.953125 -21.703125 C 20.953125 -22.671875 20.613281 -23.429688 19.9375 -23.984375 C 19.269531 -24.546875 18.363281 -24.828125 17.21875 -24.828125 Z M 10.875 -12.859375 L 10.875 -6.03125 L 17.21875 -6.03125 C 18.6875 -6.03125 19.835938 -6.335938 20.671875 -6.953125 C 21.503906 -7.566406 21.921875 -8.421875 21.921875 -9.515625 C 21.921875 -10.535156 21.503906 -11.347656 20.671875 -11.953125 C 19.835938 -12.554688 18.6875 -12.859375 17.21875 -12.859375 Z M 10.875 -12.859375 "/></g></g></g><g fill="#00356a" fill-opacity="1"><g transform="translate(122.036975, 55.287296)"><g><path d="M 17.703125 -31.09375 C 22.484375 -31.09375 26.457031 -29.597656 29.625 -26.609375 C 32.800781 -23.628906 34.390625 -19.910156 34.390625 -15.453125 C 34.390625 -10.960938 32.796875 -7.203125 29.609375 -4.171875 C 26.421875 -1.148438 22.445312 0.359375 17.6875 0.359375 C 12.9375 0.359375 8.976562 -1.144531 5.8125 -4.15625 C 2.644531 -7.164062 1.0625 -10.929688 1.0625 -15.453125 C 1.0625 -19.941406 2.644531 -23.671875 5.8125 -26.640625 C 8.976562 -29.609375 12.941406 -31.09375 17.703125 -31.09375 Z M 17.78125 -24.53125 C 15.375 -24.53125 13.320312 -23.65625 11.625 -21.90625 C 9.925781 -20.15625 9.078125 -17.988281 9.078125 -15.40625 C 9.078125 -12.820312 9.929688 -10.640625 11.640625 -8.859375 C 13.359375 -7.085938 15.40625 -6.203125 17.78125 -6.203125 C 20.164062 -6.203125 22.1875 -7.085938 23.84375 -8.859375 C 25.5 -10.640625 26.328125 -12.820312 26.328125 -15.40625 C 26.328125 -17.988281 25.5 -20.15625 23.84375 -21.90625 C 22.1875 -23.65625 20.164062 -24.53125 17.78125 -24.53125 Z M 17.78125 -24.53125 "/></g></g></g><g fill="#00356a" fill-opacity="1"><g transform="translate(160.609566, 55.287296)"><g><path d="M 23.5625 -15.671875 L 30.34375 -15.671875 L 30.34375 -3.65625 C 28.664062 -2.476562 26.644531 -1.515625 24.28125 -0.765625 C 21.914062 -0.015625 19.664062 0.359375 17.53125 0.359375 C 12.832031 0.359375 8.910156 -1.144531 5.765625 -4.15625 C 2.628906 -7.164062 1.0625 -10.914062 1.0625 -15.40625 C 1.0625 -19.875 2.675781 -23.601562 5.90625 -26.59375 C 9.132812 -29.59375 13.179688 -31.09375 18.046875 -31.09375 C 20.335938 -31.09375 22.613281 -30.679688 24.875 -29.859375 C 27.132812 -29.035156 29.054688 -27.914062 30.640625 -26.5 L 26.25 -21.171875 C 25.125 -22.203125 23.828125 -23.019531 22.359375 -23.625 C 20.898438 -24.226562 19.453125 -24.53125 18.015625 -24.53125 C 15.484375 -24.53125 13.359375 -23.65625 11.640625 -21.90625 C 9.929688 -20.15625 9.078125 -17.988281 9.078125 -15.40625 C 9.078125 -12.789062 9.941406 -10.601562 11.671875 -8.84375 C 13.398438 -7.082031 15.539062 -6.203125 18.09375 -6.203125 C 19.738281 -6.203125 21.5625 -6.703125 23.5625 -7.703125 Z M 23.5625 -15.671875 "/></g></g></g><g fill="#00356a" fill-opacity="1"><g transform="translate(196.452187, 55.287296)"><g><path d="M 23.5625 -5.6875 L 10.078125 -5.6875 L 7.84375 0 L -0.21875 0 L 13.078125 -30.828125 L 21.140625 -30.828125 L 34.125 0 L 25.765625 0 Z M 21.265625 -11.625 L 16.859375 -23.03125 L 12.375 -11.625 Z M 21.265625 -11.625 "/></g></g></g><g fill="#00356a" fill-opacity="1"><g transform="translate(233.483664, 55.287296)"><g><path d="M 3.078125 -30.828125 L 16.328125 -30.828125 C 21.171875 -30.828125 25.113281 -29.398438 28.15625 -26.546875 C 31.195312 -23.703125 32.71875 -19.988281 32.71875 -15.40625 C 32.71875 -10.863281 31.175781 -7.160156 28.09375 -4.296875 C 25.007812 -1.429688 20.988281 0 16.03125 0 L 3.078125 0 Z M 10.921875 -24.5625 L 10.921875 -6.25 L 16.515625 -6.25 C 18.921875 -6.25 20.894531 -7.09375 22.4375 -8.78125 C 23.976562 -10.46875 24.75 -12.660156 24.75 -15.359375 C 24.75 -18.066406 23.941406 -20.273438 22.328125 -21.984375 C 20.710938 -23.703125 18.65625 -24.5625 16.15625 -24.5625 Z M 10.921875 -24.5625 "/></g></g></g><g fill="#00356a" fill-opacity="1"><g transform="translate(270.383049, 55.287296)"><g><path d="M 17.703125 -31.09375 C 22.484375 -31.09375 26.457031 -29.597656 29.625 -26.609375 C 32.800781 -23.628906 34.390625 -19.910156 34.390625 -15.453125 C 34.390625 -10.960938 32.796875 -7.203125 29.609375 -4.171875 C 26.421875 -1.148438 22.445312 0.359375 17.6875 0.359375 C 12.9375 0.359375 8.976562 -1.144531 5.8125 -4.15625 C 2.644531 -7.164062 1.0625 -10.929688 1.0625 -15.453125 C 1.0625 -19.941406 2.644531 -23.671875 5.8125 -26.640625 C 8.976562 -29.609375 12.941406 -31.09375 17.703125 -31.09375 Z M 17.78125 -24.53125 C 15.375 -24.53125 13.320312 -23.65625 11.625 -21.90625 C 9.925781 -20.15625 9.078125 -17.988281 9.078125 -15.40625 C 9.078125 -12.820312 9.929688 -10.640625 11.640625 -8.859375 C 13.359375 -7.085938 15.40625 -6.203125 17.78125 -6.203125 C 20.164062 -6.203125 22.1875 -7.085938 23.84375 -8.859375 C 25.5 -10.640625 26.328125 -12.820312 26.328125 -15.40625 C 26.328125 -17.988281 25.5 -20.15625 23.84375 -21.90625 C 22.1875 -23.65625 20.164062 -24.53125 17.78125 -24.53125 Z M 17.78125 -24.53125 "/></g></g></g><g fill="#00356a" fill-opacity="1"><g transform="translate(308.955637, 55.287296)"><g><path d="M 17.53125 -31.09375 C 19.8125 -31.09375 22.0625 -30.617188 24.28125 -29.671875 C 26.5 -28.734375 28.382812 -27.472656 29.9375 -25.890625 L 25.40625 -20.515625 C 24.40625 -21.753906 23.207031 -22.734375 21.8125 -23.453125 C 20.414062 -24.171875 19.03125 -24.53125 17.65625 -24.53125 C 15.21875 -24.53125 13.175781 -23.671875 11.53125 -21.953125 C 9.894531 -20.234375 9.078125 -18.113281 9.078125 -15.59375 C 9.078125 -13.007812 9.894531 -10.847656 11.53125 -9.109375 C 13.175781 -7.378906 15.21875 -6.515625 17.65625 -6.515625 C 18.945312 -6.515625 20.289062 -6.835938 21.6875 -7.484375 C 23.082031 -8.128906 24.320312 -9.007812 25.40625 -10.125 L 29.984375 -5.28125 C 28.304688 -3.582031 26.332031 -2.21875 24.0625 -1.1875 C 21.789062 -0.15625 19.523438 0.359375 17.265625 0.359375 C 12.617188 0.359375 8.753906 -1.148438 5.671875 -4.171875 C 2.597656 -7.203125 1.0625 -10.976562 1.0625 -15.5 C 1.0625 -19.925781 2.628906 -23.628906 5.765625 -26.609375 C 8.910156 -29.597656 12.832031 -31.09375 17.53125 -31.09375 Z M 17.53125 -31.09375 "/></g></g></g><g fill="#00356a" fill-opacity="1"><g transform="translate(342.552647, 55.287296)"><g><path d="M 14.921875 -31.171875 C 19.535156 -31.171875 23.585938 -30.023438 27.078125 -27.734375 L 24.125 -21.625 C 22.507812 -22.5625 20.773438 -23.328125 18.921875 -23.921875 C 17.078125 -24.523438 15.523438 -24.828125 14.265625 -24.828125 C 12.003906 -24.828125 10.875 -24.082031 10.875 -22.59375 C 10.875 -21.625 11.429688 -20.84375 12.546875 -20.25 C 13.660156 -19.664062 15.015625 -19.160156 16.609375 -18.734375 C 18.210938 -18.304688 19.816406 -17.789062 21.421875 -17.1875 C 23.023438 -16.59375 24.382812 -15.617188 25.5 -14.265625 C 26.613281 -12.910156 27.171875 -11.207031 27.171875 -9.15625 C 27.171875 -6.195312 26.007812 -3.882812 23.6875 -2.21875 C 21.363281 -0.5625 18.414062 0.265625 14.84375 0.265625 C 12.28125 0.265625 9.75 -0.171875 7.25 -1.046875 C 4.757812 -1.929688 2.59375 -3.140625 0.75 -4.671875 L 3.78125 -10.703125 C 5.34375 -9.347656 7.175781 -8.238281 9.28125 -7.375 C 11.394531 -6.507812 13.273438 -6.078125 14.921875 -6.078125 C 16.179688 -6.078125 17.164062 -6.300781 17.875 -6.75 C 18.582031 -7.207031 18.9375 -7.878906 18.9375 -8.765625 C 18.9375 -9.617188 18.53125 -10.328125 17.71875 -10.890625 C 16.914062 -11.460938 15.910156 -11.890625 14.703125 -12.171875 C 13.503906 -12.453125 12.195312 -12.828125 10.78125 -13.296875 C 9.375 -13.765625 8.066406 -14.273438 6.859375 -14.828125 C 5.660156 -15.390625 4.65625 -16.28125 3.84375 -17.5 C 3.039062 -18.71875 2.640625 -20.179688 2.640625 -21.890625 C 2.640625 -24.703125 3.757812 -26.953125 6 -28.640625 C 8.25 -30.328125 11.222656 -31.171875 14.921875 -31.171875 Z M 14.921875 -31.171875 "/></g></g></g></svg>