<svg xmlns="http://www.w3.org/2000/svg" xmlns:xlink="http://www.w3.org/1999/xlink" width="100" zoomAndPan="magnify" viewBox="0 0 75 74.999997" height="100" preserveAspectRatio="xMidYMid meet" version="1.0"><defs><clipPath id="c28d869731"><path d="M 1.988281 1.988281 L 73.238281 1.988281 L 73.238281 73.238281 L 1.988281 73.238281 Z M 1.988281 1.988281 " clip-rule="nonzero"/></clipPath><clipPath id="18b1dc7945"><path d="M 16 16 L 60.542969 16 L 60.542969 60.542969 L 16 60.542969 Z M 16 16 " clip-rule="nonzero"/></clipPath></defs><rect x="-7.5" width="90" fill="#ffffff" y="-7.5" height="89.999996" fill-opacity="1"/><rect x="-7.5" width="90" fill="#ffffff" y="-7.5" height="89.999996" fill-opacity="1"/><rect x="-7.5" width="90" fill="#ffffff" y="-7.5" height="89.999996" fill-opacity="1"/><g clip-path="url(#c28d869731)"><path fill="#00356a" d="M 37.613281 73.238281 C 17.929688 73.238281 1.988281 57.183594 1.988281 37.613281 C 1.988281 18.039062 17.929688 1.988281 37.613281 1.988281 C 57.292969 1.988281 73.238281 17.929688 73.238281 37.613281 C 73.238281 57.292969 57.183594 73.238281 37.613281 73.238281 Z M 37.613281 4.1875 C 19.140625 4.1875 4.1875 19.140625 4.1875 37.613281 C 4.1875 56.085938 19.140625 71.039062 37.613281 71.039062 C 56.085938 71.039062 71.039062 56.085938 71.039062 37.613281 C 71.039062 19.140625 55.976562 4.1875 37.613281 4.1875 Z M 37.613281 4.1875 " fill-opacity="1" fill-rule="nonzero"/></g><g clip-path="url(#18b1dc7945)"><path fill="#00356a" d="M 24.574219 40.933594 C 20.054688 36.414062 20.054688 29.089844 24.574219 24.574219 C 29.089844 20.054688 36.414062 20.054688 40.933594 24.574219 C 45.449219 29.089844 45.449219 36.414062 40.933594 40.933594 C 36.414062 45.449219 29.089844 45.449219 24.574219 40.933594 Z M 59.648438 56.398438 L 45.816406 42.566406 C 50.644531 36.160156 50.15625 27.019531 44.320312 21.183594 C 37.933594 14.796875 27.574219 14.796875 21.183594 21.183594 C 14.796875 27.574219 14.796875 37.933594 21.183594 44.320312 C 27.019531 50.15625 36.160156 50.644531 42.570312 45.816406 L 56.398438 59.648438 C 57.292969 60.542969 58.75 60.542969 59.648438 59.648438 C 60.542969 58.75 60.542969 57.292969 59.648438 56.398438 " fill-opacity="1" fill-rule="nonzero"/></g></svg>