<svg xmlns="http://www.w3.org/2000/svg" xmlns:xlink="http://www.w3.org/1999/xlink" width="100" zoomAndPan="magnify" viewBox="0 0 75 74.999997" height="100" preserveAspectRatio="xMidYMid meet" version="1.0"><defs><clipPath id="98b2ac0854"><path d="M 2.101562 2.101562 L 72.601562 2.101562 L 72.601562 72.601562 L 2.101562 72.601562 Z M 2.101562 2.101562 " clip-rule="nonzero"/></clipPath></defs><rect x="-7.5" width="90" fill="#ffffff" y="-7.5" height="89.999996" fill-opacity="1"/><rect x="-7.5" width="90" fill="#ffffff" y="-7.5" height="89.999996" fill-opacity="1"/><rect x="-7.5" width="90" fill="#ffffff" y="-7.5" height="89.999996" fill-opacity="1"/><g clip-path="url(#98b2ac0854)"><path fill="#00356a" d="M 37.351562 2.101562 C 36.195312 2.101562 35.042969 2.15625 33.894531 2.269531 C 32.746094 2.382812 31.605469 2.550781 30.472656 2.777344 C 29.339844 3.003906 28.222656 3.28125 27.117188 3.617188 C 26.011719 3.953125 24.925781 4.339844 23.859375 4.785156 C 22.792969 5.226562 21.75 5.71875 20.734375 6.261719 C 19.714844 6.804688 18.726562 7.398438 17.765625 8.039062 C 16.804688 8.683594 15.878906 9.367188 14.988281 10.101562 C 14.09375 10.832031 13.242188 11.609375 12.425781 12.425781 C 11.609375 13.242188 10.832031 14.09375 10.101562 14.988281 C 9.367188 15.878906 8.683594 16.804688 8.039062 17.765625 C 7.398438 18.726562 6.804688 19.714844 6.261719 20.734375 C 5.71875 21.75 5.226562 22.792969 4.785156 23.859375 C 4.339844 24.925781 3.953125 26.011719 3.617188 27.117188 C 3.28125 28.222656 3.003906 29.339844 2.777344 30.472656 C 2.550781 31.605469 2.382812 32.746094 2.269531 33.894531 C 2.15625 35.042969 2.101562 36.195312 2.101562 37.351562 C 2.101562 38.503906 2.15625 39.65625 2.269531 40.804688 C 2.382812 41.953125 2.550781 43.09375 2.777344 44.226562 C 3.003906 45.359375 3.28125 46.476562 3.617188 47.582031 C 3.953125 48.6875 4.339844 49.773438 4.785156 50.839844 C 5.226562 51.90625 5.71875 52.949219 6.261719 53.964844 C 6.804688 54.984375 7.398438 55.972656 8.039062 56.933594 C 8.683594 57.894531 9.367188 58.820312 10.101562 59.710938 C 10.832031 60.605469 11.609375 61.460938 12.425781 62.277344 C 13.242188 63.09375 14.09375 63.867188 14.988281 64.597656 C 15.878906 65.332031 16.804688 66.019531 17.765625 66.660156 C 18.726562 67.300781 19.714844 67.894531 20.734375 68.4375 C 21.75 68.980469 22.792969 69.476562 23.859375 69.917969 C 24.925781 70.359375 26.011719 70.746094 27.117188 71.082031 C 28.222656 71.417969 29.339844 71.699219 30.472656 71.921875 C 31.605469 72.148438 32.746094 72.316406 33.894531 72.429688 C 35.042969 72.542969 36.195312 72.601562 37.351562 72.601562 C 38.503906 72.601562 39.65625 72.542969 40.804688 72.429688 C 41.953125 72.316406 43.09375 72.148438 44.226562 71.921875 C 45.359375 71.699219 46.476562 71.417969 47.582031 71.082031 C 48.6875 70.746094 49.773438 70.359375 50.839844 69.917969 C 51.90625 69.476562 52.949219 68.980469 53.964844 68.4375 C 54.984375 67.894531 55.972656 67.300781 56.933594 66.660156 C 57.894531 66.019531 58.820312 65.332031 59.710938 64.597656 C 60.605469 63.867188 61.460938 63.09375 62.277344 62.277344 C 63.09375 61.460938 63.867188 60.605469 64.597656 59.710938 C 65.332031 58.820312 66.019531 57.894531 66.660156 56.933594 C 67.300781 55.972656 67.894531 54.984375 68.4375 53.964844 C 68.980469 52.949219 69.476562 51.90625 69.917969 50.839844 C 70.359375 49.773438 70.746094 48.6875 71.082031 47.582031 C 71.417969 46.476562 71.699219 45.359375 71.921875 44.226562 C 72.148438 43.09375 72.316406 41.953125 72.429688 40.804688 C 72.542969 39.65625 72.601562 38.503906 72.601562 37.351562 C 72.601562 36.195312 72.542969 35.042969 72.429688 33.894531 C 72.316406 32.746094 72.148438 31.605469 71.921875 30.472656 C 71.695312 29.339844 71.417969 28.222656 71.082031 27.117188 C 70.746094 26.011719 70.355469 24.925781 69.914062 23.859375 C 69.472656 22.792969 68.980469 21.753906 68.4375 20.734375 C 67.890625 19.714844 67.300781 18.726562 66.65625 17.765625 C 66.015625 16.808594 65.328125 15.882812 64.597656 14.988281 C 63.863281 14.097656 63.089844 13.242188 62.273438 12.425781 C 61.457031 11.609375 60.605469 10.835938 59.710938 10.101562 C 58.820312 9.371094 57.894531 8.683594 56.933594 8.042969 C 55.972656 7.402344 54.984375 6.808594 53.964844 6.261719 C 52.949219 5.71875 51.90625 5.226562 50.839844 4.785156 C 49.773438 4.34375 48.6875 3.953125 47.582031 3.617188 C 46.476562 3.285156 45.359375 3.003906 44.226562 2.777344 C 43.09375 2.550781 41.953125 2.382812 40.804688 2.269531 C 39.65625 2.15625 38.503906 2.101562 37.351562 2.101562 Z M 37.351562 15.320312 C 37.765625 15.320312 38.183594 15.34375 38.597656 15.390625 C 39.011719 15.4375 39.421875 15.511719 39.828125 15.605469 C 40.234375 15.703125 40.636719 15.820312 41.027344 15.960938 C 41.421875 16.101562 41.804688 16.265625 42.175781 16.453125 C 42.550781 16.640625 42.914062 16.847656 43.261719 17.074219 C 43.613281 17.304688 43.945312 17.550781 44.269531 17.816406 C 44.589844 18.085938 44.894531 18.367188 45.179688 18.671875 C 45.46875 18.972656 45.738281 19.289062 45.992188 19.625 C 46.242188 19.957031 46.472656 20.304688 46.683594 20.664062 C 46.894531 21.023438 47.085938 21.394531 47.253906 21.777344 C 47.421875 22.160156 47.566406 22.550781 47.6875 22.949219 C 47.8125 23.347656 47.910156 23.753906 47.988281 24.164062 C 48.0625 24.574219 48.113281 24.988281 48.144531 25.402344 C 48.171875 25.820312 48.175781 26.238281 48.15625 26.652344 C 48.132812 27.070312 48.089844 27.484375 48.023438 27.898438 C 47.953125 28.308594 47.863281 28.714844 47.746094 29.117188 C 47.632812 29.519531 47.492188 29.910156 47.332031 30.296875 C 47.171875 30.679688 46.988281 31.054688 46.785156 31.421875 C 46.582031 31.785156 46.355469 32.136719 46.109375 32.472656 C 45.867188 32.8125 45.601562 33.132812 45.320312 33.441406 C 45.039062 33.75 44.738281 34.039062 44.421875 34.3125 C 44.109375 34.585938 43.777344 34.839844 43.429688 35.074219 C 43.085938 35.308594 42.730469 35.523438 42.359375 35.714844 C 41.988281 35.910156 41.609375 36.078125 41.21875 36.230469 C 40.828125 36.378906 40.433594 36.503906 40.027344 36.605469 C 39.621094 36.710938 39.214844 36.789062 38.800781 36.84375 C 38.386719 36.902344 37.972656 36.933594 37.554688 36.941406 C 37.136719 36.949219 36.71875 36.933594 36.304688 36.890625 C 35.890625 36.851562 35.476562 36.785156 35.070312 36.699219 C 34.660156 36.609375 34.257812 36.5 33.863281 36.363281 C 33.46875 36.230469 33.082031 36.070312 32.707031 35.890625 C 32.328125 35.710938 31.964844 35.511719 31.609375 35.289062 C 22.535156 29.539062 26.464844 15.429688 37.351562 15.320312 Z M 50.027344 59.382812 L 24.671875 59.382812 C 24.144531 59.378906 23.628906 59.328125 23.113281 59.226562 C 22.597656 59.121094 22.097656 58.96875 21.613281 58.769531 C 21.128906 58.566406 20.671875 58.320312 20.234375 58.027344 C 19.796875 57.738281 19.394531 57.40625 19.023438 57.035156 C 18.652344 56.664062 18.324219 56.257812 18.03125 55.824219 C 17.738281 55.386719 17.496094 54.925781 17.292969 54.441406 C 17.09375 53.957031 16.941406 53.457031 16.839844 52.941406 C 16.734375 52.429688 16.683594 51.910156 16.683594 51.382812 C 16.683594 44.609375 21.675781 38.761719 28.835938 36.128906 C 29.425781 36.625 30.054688 37.070312 30.722656 37.460938 C 31.390625 37.847656 32.089844 38.175781 32.816406 38.441406 C 33.542969 38.707031 34.285156 38.910156 35.046875 39.042969 C 35.808594 39.179688 36.578125 39.246094 37.351562 39.246094 C 38.125 39.246094 38.890625 39.179688 39.652344 39.042969 C 40.414062 38.910156 41.15625 38.707031 41.882812 38.441406 C 42.609375 38.175781 43.308594 37.847656 43.976562 37.460938 C 44.644531 37.070312 45.273438 36.625 45.863281 36.128906 C 53.023438 38.761719 58.015625 44.609375 58.015625 51.382812 C 58.015625 51.910156 57.964844 52.429688 57.859375 52.941406 C 57.757812 53.457031 57.605469 53.957031 57.40625 54.441406 C 57.207031 54.925781 56.960938 55.386719 56.667969 55.824219 C 56.378906 56.257812 56.046875 56.664062 55.675781 57.035156 C 55.304688 57.40625 54.902344 57.738281 54.464844 58.027344 C 54.03125 58.320312 53.570312 58.566406 53.085938 58.769531 C 52.601562 58.96875 52.101562 59.121094 51.585938 59.226562 C 51.074219 59.328125 50.554688 59.378906 50.027344 59.382812 Z M 50.027344 59.382812 " fill-opacity="1" fill-rule="nonzero"/></g></svg>