<svg xmlns="http://www.w3.org/2000/svg" xmlns:xlink="http://www.w3.org/1999/xlink" width="100" zoomAndPan="magnify" viewBox="0 0 75 74.999997" height="100" preserveAspectRatio="xMidYMid meet" version="1.0"><path fill="#00356a" d="M 16.03125 42.851562 C 8.625 35.445312 8.625 23.4375 16.03125 16.03125 C 23.4375 8.625 35.445312 8.625 42.851562 16.03125 C 50.257812 23.4375 50.257812 35.445312 42.851562 42.851562 C 35.445312 50.257812 23.4375 50.257812 16.03125 42.851562 Z M 73.53125 68.203125 L 50.859375 45.53125 C 58.769531 35.023438 57.972656 20.042969 48.40625 10.476562 C 37.929688 0.00390625 20.949219 0.00390625 10.476562 10.476562 C 0.00390625 20.949219 0.00390625 37.929688 10.476562 48.40625 C 20.042969 57.972656 35.023438 58.769531 45.53125 50.859375 L 68.203125 73.53125 C 69.675781 75 72.058594 75 73.53125 73.53125 C 75 72.058594 75 69.671875 73.53125 68.203125 " fill-opacity="1" fill-rule="nonzero"/></svg>